<?xml version="1.0" encoding="UTF-8" standalone="no"?>
<!-- Created with Inkscape (http://www.inkscape.org/) -->

<svg
   xmlns:dc="http://purl.org/dc/elements/1.1/"
   xmlns:cc="http://creativecommons.org/ns#"
   xmlns:rdf="http://www.w3.org/1999/02/22-rdf-syntax-ns#"
   xmlns:svg="http://www.w3.org/2000/svg"
   xmlns="http://www.w3.org/2000/svg"
   xmlns:sodipodi="http://sodipodi.sourceforge.net/DTD/sodipodi-0.dtd"
   xmlns:inkscape="http://www.inkscape.org/namespaces/inkscape"
   width="39.700001mm"
   height="40mm"
   viewBox="0 0 39.7 40"
   version="1.1"
   id="svg8"
   inkscape:version="0.92.4 (5da689c313, 2019-01-14)"
   sodipodi:docname="icon.svg">
  <defs
     id="defs2" />
  <sodipodi:namedview
     id="base"
     pagecolor="#ffffff"
     bordercolor="#666666"
     borderopacity="1.0"
     inkscape:pageopacity="0.0"
     inkscape:pageshadow="2"
     inkscape:zoom="2.8"
     inkscape:cx="129.19534"
     inkscape:cy="55.530518"
     inkscape:document-units="mm"
     inkscape:current-layer="g4553"
     showgrid="false"
     inkscape:window-width="1920"
     inkscape:window-height="1017"
     inkscape:window-x="-8"
     inkscape:window-y="-8"
     inkscape:window-maximized="1" />
  <metadata
     id="metadata5">
    <rdf:RDF>
      <cc:Work
         rdf:about="">
        <dc:format>image/svg+xml</dc:format>
        <dc:type
           rdf:resource="http://purl.org/dc/dcmitype/StillImage" />
        <dc:title></dc:title>
      </cc:Work>
    </rdf:RDF>
  </metadata>
  <g
     inkscape:label="Capa 1"
     inkscape:groupmode="layer"
     id="layer1"
     transform="translate(0,-257)">
    <g
       id="g4553"
       transform="translate(-54.573136,-104.40068)">
      <path
         style="fill:#ffffff;fill-opacity:1;stroke-width:0.08466666"
         d="m 89.273281,382.94776 c -0.171884,-0.32116 0.146926,-2.7042 0.594553,-4.44416 0.500819,-1.94672 0.987427,-3.23116 1.998056,-5.27402 1.008614,-2.03878 1.325808,-2.9597 1.139389,-3.30803 -0.156574,-0.29256 -2.062504,-1.32065 -3.42076,-1.84521 -0.41314,-0.15955 -1.287151,-0.40371 -1.942248,-0.54257 -1.094231,-0.23195 -1.277652,-0.24803 -2.255631,-0.19775 -0.5855,0.0301 -1.388395,0.12291 -1.784212,0.20623 -0.395817,0.0833 -0.910167,0.17699 -1.143,0.20816 -0.232833,0.0312 -0.823383,0.17202 -1.312333,0.31302 -0.48895,0.141 -1.3843,0.38291 -1.989667,0.53759 -1.249264,0.31919 -2.31851,0.71103 -3.33513,1.22217 -0.678097,0.34094 -0.696691,0.35832 -0.643347,0.60119 0.06704,0.30525 0.08396,0.30463 -0.952297,0.0352 -1.307983,-0.34007 -2.291701,-0.42429 -3.163636,-0.27086 -0.953151,0.16773 -1.515256,0.41291 -1.515256,0.66092 0,0.1571 -0.03477,0.17724 -0.232833,0.13487 -0.128059,-0.0274 -0.518584,-0.11176 -0.867833,-0.18748 -1.329345,-0.28821 -2.571827,-0.0243 -3.330145,0.70738 -0.424443,0.40953 -0.589078,0.72695 -0.645424,1.24441 -0.05218,0.47915 -0.06495,0.48329 -0.821211,0.26609 -0.947804,-0.2722 -1.689897,-0.34849 -2.327042,-0.23923 -0.691732,0.11861 -1.924858,0.67319 -2.819829,1.26817 -1.293249,0.85975 -2.91275,2.86013 -3.098565,3.8273 -0.144555,0.75241 0.08634,2.65094 0.467372,3.84294 0.117431,0.36737 0.213511,0.71628 0.213511,0.77536 0,0.23498 1.083803,1.68924 1.687527,2.26435 1.080754,1.02952 2.881995,2.26135 3.306648,2.26135 h 0.187545 l -0.07202,1.0795 c -0.109749,1.64489 -0.08621,1.92918 0.220797,2.66664 0.37376,0.89781 0.854393,1.61365 1.529249,2.2776 0.598728,0.58905 1.125141,0.83426 1.790994,0.83426 0.614165,0 2.868817,-0.80106 3.329601,-1.18298 0.09313,-0.0772 0.340783,-0.21283 0.550333,-0.30142 1.154796,-0.48817 2.360981,-1.45116 3.172913,-2.53318 0.2749,-0.36635 0.308067,-0.4601 0.262833,-0.74298 -0.03979,-0.24881 -0.02113,-0.33548 0.08064,-0.37453 0.164281,-0.063 0.265856,0.0695 0.756945,0.98738 0.819071,1.53097 2.224714,3.12061 3.14982,3.56212 1.035202,0.49406 2.14172,0.52389 2.864433,0.0772 0.327766,-0.20257 0.803744,-0.96983 0.803744,-1.2956 0,-0.35164 0.142963,-0.62637 0.353658,-0.67962 0.108171,-0.0273 0.369894,-0.15975 0.581607,-0.29426 0.297774,-0.18919 0.408773,-0.32415 0.490232,-0.59603 0.122723,-0.40962 0.231153,-0.43375 0.818169,-0.18213 0.313903,0.13455 0.580534,0.16899 1.298186,0.16768 1.092084,-0.002 2.642052,-0.19684 2.909696,-0.36577 0.107132,-0.0676 0.290034,-0.15096 0.406451,-0.1852 0.116417,-0.0342 0.320836,-0.13918 0.454265,-0.2332 0.172744,-0.12172 0.40465,-0.17743 0.805393,-0.19345 1.495974,-0.0598 3.412703,-1.34019 3.787844,-2.53027 0.182346,-0.57847 0.07085,-1.23415 -0.302023,-1.7761 -0.386806,-0.5622 -1.218835,-1.16023 -1.889888,-1.35836 -0.447763,-0.13221 -0.514412,-0.29866 -0.119586,-0.29866 -0.198322,0.0152 0.06816,-0.42219 -0.02849,-0.59603 z"
         id="path4598"
         inkscape:connector-curvature="0"
         sodipodi:nodetypes="cscccccccscccccscccccccscscsccccsccccccccsccccccccccsccc" />
      <path
         style="fill:#eddbe7;fill-opacity:1;stroke-width:0.08466666"
         d="m 77.905274,392.21248 c 0.229972,-0.14361 0.383203,-0.67309 0.306293,-1.05837 -0.03147,-0.15765 -0.145849,-0.51294 -0.254176,-0.78952 -0.108328,-0.27659 -0.19696,-0.6195 -0.19696,-0.76201 0,-0.15585 -0.186751,-0.59658 -0.468545,-1.10578 -0.715633,-1.29314 -1.37126,-2.75166 -1.236914,-2.75166 0.08216,0 0.641148,0.75619 0.964002,1.3041 0.127715,0.21674 0.286055,0.41473 0.351866,0.43999 0.360805,0.13845 1.009316,-0.66835 1.451663,-1.80599 0.183782,-0.47265 0.337859,-0.68306 0.431568,-0.58935 0.08174,0.0817 -0.214433,1.46455 -0.417379,1.94873 -0.153011,0.36506 -0.228327,0.43547 -0.708404,0.6623 -0.295455,0.13959 -0.53719,0.27072 -0.53719,0.2914 0,0.0207 0.165048,0.38939 0.366773,0.81937 0.361561,0.77067 0.372855,0.78389 0.794531,0.92995 0.547901,0.18978 0.764812,0.18628 1.099419,-0.0177 0.488327,-0.29775 0.569543,-0.57057 0.605935,-2.03543 0.01793,-0.72178 -0.01002,-1.76953 -0.06212,-2.32833 -0.0521,-0.5588 -0.135469,-1.64465 -0.185266,-2.413 -0.100744,-1.5544 -0.328955,-3.04045 -0.565595,-3.683 l -0.155906,-0.42333 -0.589052,-0.053 c -0.323978,-0.0291 -0.860843,-0.0577 -1.193033,-0.0635 -0.599952,-0.0104 -0.605977,-0.008 -0.903178,0.32066 -0.398885,0.44152 -0.437213,0.52598 -0.614306,1.35365 l -0.152163,0.71115 0.211514,0.17785 c 0.116332,0.0978 0.446924,0.35878 0.734647,0.57992 0.498448,0.38311 0.705822,0.71457 0.374968,0.59934 -0.173167,-0.0603 -1.584299,-1.08915 -2.630152,-1.91762 -0.815947,-0.64635 -0.928235,-0.66509 -1.701627,-0.28393 -0.52736,0.25991 -0.717661,0.70419 -0.713517,1.6658 0.0036,0.84197 0.15788,1.48277 0.896749,3.72533 0.634359,1.92536 1.857593,4.4466 2.33347,4.80957 0.159374,0.12156 0.550552,0.6097 0.869285,1.08477 l 0.579514,0.86375 0.363056,-0.0446 c 0.19968,-0.0245 0.447284,-0.0972 0.550231,-0.16148 z"
         id="path4594"
         inkscape:connector-curvature="0" />
      <path
         style="fill:#fce1df;fill-opacity:1;stroke-width:0.08466666"
         d="m 65.846778,391.54199 c 2.344989,-1.06053 4.445956,-2.64116 5.077438,-3.81992 0.331815,-0.61939 0.461324,-1.92972 0.312547,-3.16226 l -0.107309,-0.889 -0.685011,-0.68224 c -1.442524,-1.43668 -3.171502,-2.22182 -5.225838,-2.37307 -0.485004,-0.0357 -0.788632,-0.0187 -0.962506,0.054 -0.209217,0.0874 -0.657883,0.11035 -1.626855,0.0832 -0.147098,-0.004 -0.279129,-0.28763 -0.196336,-0.42159 0.0385,-0.0623 0.407313,-0.17948 0.819592,-0.26041 1.364989,-0.26797 3.1168,-0.69272 3.348722,-0.81193 0.28524,-0.14663 0.602092,-0.55662 0.832213,-1.07685 0.220681,-0.49888 0.172297,-0.89885 -0.200842,-1.66027 -0.22587,-0.46091 -0.33392,-0.58212 -0.699105,-0.78425 -0.23757,-0.13149 -0.79002,-0.33458 -1.227667,-0.45131 -0.437647,-0.11674 -1.002488,-0.26832 -1.255201,-0.33686 -0.805435,-0.21844 -1.691358,-0.24901 -2.561341,-0.0884 -0.997503,0.18418 -1.164751,0.24664 -1.889847,0.70576 -0.784172,0.49653 -0.944148,0.65172 -1.240993,1.20387 -0.137694,0.25611 -0.38117,0.65041 -0.541057,0.87621 -0.159887,0.22581 -0.348209,0.6042 -0.418493,0.84087 -0.544423,1.83327 0.811835,4.69084 2.869876,6.04668 1.892631,1.24687 3.960137,1.74578 5.733052,1.38345 0.979897,-0.20027 1.102396,0.0758 0.185804,0.41876 -0.256327,0.0959 -0.846015,0.21895 -1.310419,0.27344 -0.798141,0.0936 -0.854166,0.11324 -1.023304,0.35799 -0.09841,0.14241 -0.321697,0.41706 -0.496184,0.61034 -0.358712,0.39735 -0.667948,0.95622 -0.667948,1.20718 0,0.46113 0.44834,1.549 0.898924,2.18118 0.259861,0.36459 0.504872,0.69715 0.544469,0.73902 0.05926,0.0627 0.445416,0.1655 0.79028,0.21047 0.04107,0.005 0.456572,-0.16298 0.923339,-0.37408 z"
         id="path4592"
         inkscape:connector-curvature="0" />
      <path
         style="fill:#fce1df;fill-opacity:1;stroke-width:0.08466666"
         d="m 85.044736,388.61526 c 0.524807,-0.11255 1.446841,-0.51971 1.602996,-0.70787 0.06213,-0.0749 0.109773,-0.24847 0.105868,-0.3858 -0.0077,-0.27211 -0.460883,-1.18602 -0.683946,-1.3794 -0.07639,-0.0662 -0.72944,-0.21661 -1.451223,-0.33419 -2.046171,-0.33334 -3.12127,-0.91637 -1.449862,-0.78628 0.401607,0.0313 0.792855,0.0748 0.869441,0.0967 0.264411,0.0756 0.38305,-0.17902 0.436545,-0.93705 0.09769,-1.38424 -0.20499,-1.67484 -1.866957,-1.79244 -0.563355,-0.0399 -0.783167,-0.0867 -0.783167,-0.16694 0,-0.20433 0.342393,-0.29879 1.254858,-0.34619 0.727718,-0.0378 0.96902,-0.0197 1.236632,0.0928 0.208453,0.0876 0.3623,0.10997 0.412396,0.0599 0.180775,-0.18078 0.497743,-1.09894 0.53325,-1.54467 0.03583,-0.44982 0.02293,-0.49041 -0.221266,-0.69589 -0.534787,-0.44999 -2.708358,-0.9549 -3.750769,-0.87129 -0.705432,0.0566 -1.121958,0.27173 -1.103187,0.5698 0.04184,0.66444 0.319618,3.02469 0.492461,4.1844 0.178425,1.19716 0.196276,1.54318 0.153519,2.97599 l -0.04838,1.62133 0.256423,0.1326 c 0.141034,0.0729 0.498968,0.16731 0.795411,0.20972 0.776138,0.11106 2.700112,0.11394 3.208959,0.005 z"
         id="path4590"
         inkscape:connector-curvature="0" />
      <path
         style="fill:#fce1df;fill-opacity:1;stroke-width:0.08466666"
         d="m 88.089645,387.53132 c 0.606614,-0.60661 1.016119,-1.26339 1.016119,-1.62969 0,-0.26459 -0.05938,-0.3637 -0.394786,-0.65894 -0.522164,-0.45962 -1.109664,-0.63396 -2.148938,-0.63766 -0.871598,-0.003 -1.197624,0.11309 -1.309918,0.4669 -0.07323,0.23072 -0.06132,0.23951 0.522255,0.38554 1.22288,0.306 1.459465,0.59915 1.533656,1.90033 0.04133,0.72492 0.04899,0.74831 0.215708,0.65908 0.09507,-0.0509 0.349727,-0.26938 0.565904,-0.48556 z"
         id="path4588"
         inkscape:connector-curvature="0" />
      <path
         style="fill:#f3f3f3;fill-opacity:1;stroke-width:0.08466666"
         d="m 71.579765,382.40081 c 0,-0.21617 -0.11556,-0.28251 -0.214173,-0.12295 -0.07043,0.11396 0.01322,0.33461 0.12685,0.33461 0.04803,0 0.08732,-0.0953 0.08732,-0.21166 z"
         id="path4586"
         inkscape:connector-curvature="0" />
      <path
         style="fill:#eddbe7;fill-opacity:1;stroke-width:0.08466666"
         d="m 70.960475,381.58172 c 0.255543,-0.24007 0.252162,-0.57776 -0.01283,-1.28179 -0.289246,-0.76845 -0.897353,-2.02057 -1.316641,-2.71101 -0.193239,-0.31821 -0.330579,-0.59932 -0.305201,-0.6247 0.02538,-0.0254 0.357387,0.1302 0.737798,0.34572 0.635365,0.35998 0.738581,0.39187 1.268248,0.39187 0.317126,0 0.598163,0.0349 0.624528,0.0776 0.02636,0.0427 0.01284,0.16988 -0.03006,0.28271 -0.06269,0.16488 -0.02253,0.30337 0.204602,0.7056 0.15543,0.27526 0.396829,0.60951 0.536442,0.7428 0.248579,0.23731 0.259516,0.2395 0.527466,0.10583 0.150493,-0.0751 0.454508,-0.1365 0.675587,-0.1365 0.369638,0 0.416022,0.0238 0.576803,0.29633 0.09616,0.16298 0.216506,0.29633 0.267432,0.29633 0.05092,0 0.300282,0.19643 0.554129,0.43651 0.253845,0.24008 0.482202,0.41584 0.50746,0.39058 0.07296,-0.073 0.477223,-1.93895 0.430247,-1.98592 -0.0233,-0.0233 -0.21006,0.13265 -0.415025,0.34657 -0.322651,0.33673 -0.418673,0.38893 -0.715478,0.38893 -0.195255,0 -0.386412,-0.0525 -0.444106,-0.12205 -0.0842,-0.10145 -0.042,-0.13802 0.250001,-0.21664 0.292959,-0.0789 0.37708,-0.15219 0.506567,-0.44141 0.0854,-0.19075 0.13775,-0.39247 0.116333,-0.44828 -0.02142,-0.0558 -0.287952,-0.30709 -0.5923,-0.55838 -0.513911,-0.42433 -1.674481,-1.67272 -2.864799,-3.08157 -1.283765,-1.51946 -1.860504,-2.018 -2.552048,-2.20602 -0.574351,-0.15616 -2.565903,-0.2375 -2.88108,-0.11767 -0.403501,0.15341 -0.551873,0.88274 -0.360816,1.77361 0.08352,0.38945 0.135555,0.4596 0.529167,0.7134 0.240094,0.1548 0.604905,0.37189 0.81069,0.4824 0.340067,0.18264 0.392287,0.25494 0.573167,0.79361 0.313464,0.93351 0.329215,1.341 0.0782,2.02286 -0.275561,0.74852 -0.600966,1.2144 -0.972315,1.39203 -0.162242,0.0776 -0.308625,0.18331 -0.325297,0.23489 -0.01667,0.0516 0.247721,0.19248 0.587539,0.31312 0.918895,0.32621 1.812781,0.7559 2.478555,1.19144 0.325966,0.21324 0.628311,0.38852 0.671876,0.38952 0.04357,10e-4 0.167391,-0.081 0.275167,-0.18228 z"
         id="path4584"
         inkscape:connector-curvature="0" />
      <path
         style="fill:#9f9f9f;stroke-width:0.08466666"
         d="m 70.013432,375.95089 c -0.668089,-0.14968 -0.967121,-0.30519 -1.16667,-0.60673 -0.52387,-0.79162 -0.796291,-1.53702 -0.561735,-1.53702 0.05056,0 0.410794,0.27953 0.800521,0.62117 0.389726,0.34165 0.937614,0.74324 1.217529,0.89244 0.566301,0.30183 0.622785,0.35882 0.548238,0.55308 -0.05086,0.13255 -0.433264,0.16772 -0.837883,0.0771 z"
         id="path4582"
         inkscape:connector-curvature="0" />
      <path
         style="fill:#f3f3f3;fill-opacity:1;stroke-width:0.08466666"
         d="m 80.054033,378.64735 c -0.11033,-0.20616 -0.337481,-0.38988 -0.402116,-0.32525 -0.08157,0.0816 0.214909,0.48037 0.357112,0.48037 0.09788,0 0.108479,-0.0365 0.045,-0.15512 z"
         id="path4580"
         inkscape:connector-curvature="0" />
      <path
         style="fill:#fce1df;fill-opacity:1;stroke-width:0.08466666"
         d="m 77.210098,378.27444 c 0.04657,-0.002 0.451799,0.025 0.900516,0.0599 l 0.81585,0.0635 0.102407,-0.31029 c 0.07683,-0.23281 0.08028,-0.48358 0.01381,-1.00418 -0.04873,-0.38164 -0.111121,-1.01676 -0.138655,-1.41138 -0.07778,-1.11478 -0.436601,-2.5742 -0.803526,-3.26815 -0.588185,-1.11243 -0.55269,-1.08053 -1.139974,-1.02446 -0.748819,0.0715 -1.159344,0.23927 -1.380264,0.56407 -0.104775,0.15404 -0.1905,0.33015 -0.1905,0.39136 0,0.0612 0.201264,0.33684 0.447254,0.61252 0.642689,0.72028 0.899212,1.118 1.12848,1.74962 0.217833,0.60013 0.254663,0.8882 0.113556,0.8882 -0.140889,0 -0.461156,-0.38458 -1.091729,-1.31095 -0.837185,-1.2299 -2.272056,-2.56105 -3.044362,-2.82429 -0.549011,-0.18712 -1.745316,-0.05 -1.845682,0.21153 -0.0246,0.0641 0.05521,0.19517 0.177352,0.29125 0.297921,0.23435 1.401002,1.59034 2.677555,3.29147 0.575623,0.76707 1.407592,1.78974 1.84882,2.2726 0.760747,0.83253 0.815737,0.87491 1.063328,0.8196 0.143602,-0.0321 0.299194,-0.06 0.345761,-0.0619 z"
         id="path4578"
         inkscape:connector-curvature="0" />
      <path
         style="fill:#eddbe7;fill-opacity:1;stroke-width:0.08466666"
         d="m 80.996304,378.21164 c 0.666671,-0.2949 1.793435,-0.30598 3.717163,-0.0366 l 0.391369,0.0548 0.230668,-0.49686 c 0.344956,-0.74303 0.370146,-1.07394 0.100757,-1.3236 -0.304036,-0.28177 -0.765711,-0.4011 -1.54732,-0.39992 -0.742588,0.001 -1.491036,0.1675 -1.731204,0.38485 -0.186606,0.16887 -0.442451,0.10011 -0.402345,-0.10814 0.06119,-0.31774 1.316651,-0.78415 2.11844,-0.78701 0.545398,-0.002 0.610082,-0.0732 0.54733,-0.60306 -0.09823,-0.82937 -0.578675,-1.2085 -1.534497,-1.2109 -0.705621,-0.002 -1.312903,0.18651 -1.920574,0.59544 -0.235772,0.15867 -0.462948,0.28848 -0.504835,0.28848 -0.180711,0 -0.05257,-0.34184 0.21681,-0.57835 0.860626,-0.75564 2.107113,-1.12394 3.110213,-0.91898 0.271519,0.0555 0.347366,0.0328 0.574151,-0.17187 0.207133,-0.18691 0.271906,-0.32736 0.312441,-0.67744 0.09552,-0.82494 -0.1371,-1.06312 -1.368773,-1.40154 -1.164879,-0.32006 -4.019881,-0.2871 -4.4833,0.0518 -0.229229,0.16762 -0.200659,1.00093 0.05997,1.74909 0.121664,0.34925 0.265548,0.9017 0.319743,1.22767 0.0542,0.32596 0.171583,0.84031 0.260862,1.143 0.08928,0.30268 0.194023,0.89619 0.232765,1.3189 0.05708,0.6228 0.129701,0.89178 0.382883,1.41817 0.171843,0.35727 0.363318,0.64959 0.425498,0.64959 0.06218,0 0.283485,-0.0754 0.491787,-0.16753 z"
         id="path4576"
         inkscape:connector-curvature="0" />
    </g>
    <path
       style="fill:#000000;stroke-width:0.08466666"
       d=""
       id="path4529"
       inkscape:connector-curvature="0" />
    <path
       style="fill:#fce1df;fill-opacity:1;stroke:none;stroke-width:0.26458332px;stroke-linecap:butt;stroke-linejoin:miter;stroke-opacity:1"
       d="m 28.815327,264.48318 7.500466,1.38198 -2.539529,6.55552 -0.472469,5.43341 -0.283482,0.59059 -2.795993,-0.21204 1.135896,-2.94832 -0.626414,-1.21942 0.684879,-2.1131 -1.444926,-0.76004 -0.108577,-2.32191 0.734991,-1.73725 -1.478336,-1.3447 z"
       id="path4602"
       inkscape:connector-curvature="0" />
    <path
       style="fill:#c375a9;fill-opacity:1;stroke-width:0.08466666"
       d="m 9.5739572,290.13355 c -0.6008059,-0.23701 -2.0135249,-1.51444 -2.5240249,-2.28234 -0.802911,-1.20775 -1.058911,-2.22677 -0.965169,-3.84189 0.03236,-0.55763 0.04609,-1.03797 0.0305,-1.06742 -0.01559,-0.0295 -0.315631,-0.18999 -0.666765,-0.35674 -1.6744322,-0.79519 -4.3235152,-3.06669 -4.74060317,-4.06492 -0.38301895,-0.91669 -0.78335295,-3.42923 -0.70223995,-4.40734 0.0436,-0.5257 0.65306995,-1.83185 1.33752092,-2.86639 1.056941,-1.59757 2.599678,-2.84927 4.1487802,-3.36611 0.760361,-0.25368 2.298136,-0.22 2.878667,0.0631 0.209549,0.10217 0.537397,0.21043 0.728551,0.24057 l 0.347552,0.0548 0.09504,-0.37743 c 0.124857,-0.49585 0.5614357,-1.13441 1.0062897,-1.47186 0.863048,-0.65466 2.310601,-0.89386 3.283569,-0.54258 0.816167,0.29466 0.816774,0.29465 1.303192,-0.0327 0.745643,-0.50178 1.478761,-0.6845 2.718475,-0.67755 0.944937,0.005 1.11801,0.0303 1.615309,0.23283 0.306337,0.1248 0.601398,0.2269 0.655693,0.2269 0.05429,0 0.405346,-0.22735 0.780117,-0.50523 0.639711,-0.47431 1.869483,-1.12607 2.53688,-1.3445 0.802423,-0.26262 3.902571,-1.1122 4.235256,-1.16065 0.208494,-0.0304 0.607676,-0.11659 0.887076,-0.19161 0.619673,-0.16638 3.150452,-0.18785 4.0668,-0.0345 0.567552,0.095 2.716765,0.8704 4.907867,1.77072 1.208745,0.49667 2.159875,1.08638 2.157135,1.33744 -0.004,0.39333 -0.64857,1.96304 -0.99273,2.41867 -0.35593,0.47122 -1.442681,2.64996 -2.060075,4.13008 -0.797243,1.91128 -1.683959,5.22517 -1.685928,6.30074 -7.94e-4,0.42508 -0.102944,0.51646 -0.256548,0.22944 -0.171884,-0.32116 0.146926,-2.7042 0.594553,-4.44416 0.50082,-1.94672 0.987428,-3.23116 1.998057,-5.27402 1.008611,-2.03878 1.325811,-2.9597 1.139391,-3.30803 -0.15658,-0.29256 -2.062506,-1.32065 -3.420764,-1.84521 -0.413138,-0.15955 -1.28715,-0.40371 -1.942248,-0.54257 -1.094229,-0.23195 -1.277651,-0.24803 -2.255631,-0.19775 -0.585499,0.0301 -1.388393,0.12291 -1.784212,0.20623 -0.395817,0.0833 -0.910167,0.17699 -1.143,0.20816 -0.232831,0.0312 -0.823381,0.17202 -1.312331,0.31302 -0.488951,0.141 -1.384301,0.38291 -1.989668,0.53759 -1.249264,0.31919 -2.31851,0.71103 -3.33513,1.22217 -0.678097,0.34094 -0.696691,0.35832 -0.643347,0.60119 0.06704,0.30525 0.08396,0.30463 -0.952297,0.0352 -1.307983,-0.34007 -2.291701,-0.42429 -3.163636,-0.27086 -0.953151,0.16773 -1.515256,0.41291 -1.515256,0.66092 0,0.1571 -0.03477,0.17724 -0.232833,0.13487 -0.128059,-0.0274 -0.518584,-0.11176 -0.867833,-0.18748 -1.329345,-0.28821 -2.571827,-0.0243 -3.330145,0.70738 -0.424443,0.40953 -0.5890777,0.72695 -0.6454247,1.24441 -0.05218,0.47915 -0.06495,0.48329 -0.8212109,0.26609 -0.947804,-0.2722 -1.689897,-0.34849 -2.327042,-0.23923 -0.691732,0.11861 -1.9248582,0.67319 -2.8198292,1.26817 -1.293249,0.85975 -2.91275,2.86013 -3.09856497,3.8273 -0.144555,0.75241 0.08634,2.65094 0.46737197,3.84294 0.117431,0.36737 0.213511,0.71628 0.213511,0.77536 0,0.23498 1.083803,1.68924 1.687527,2.26435 1.080754,1.02951 2.8819952,2.26134 3.3066482,2.26134 h 0.187545 l -0.07202,1.0795 c -0.109749,1.64489 -0.08621,1.92918 0.220797,2.66664 0.37376,0.89781 0.854393,1.61365 1.529249,2.2776 0.598728,0.58904 1.125141,0.83425 1.7909946,0.83425 0.614165,0 2.868817,-0.80105 3.329601,-1.18297 0.09313,-0.0772 0.340783,-0.21283 0.550333,-0.30142 1.154796,-0.48817 2.360981,-1.45116 3.172913,-2.53318 0.2749,-0.36635 0.308067,-0.4601 0.262833,-0.74298 -0.03979,-0.24881 -0.02113,-0.33548 0.08064,-0.37453 0.164281,-0.063 0.265856,0.0695 0.756945,0.98738 0.819071,1.53097 2.224714,3.12061 3.14982,3.56212 1.035202,0.49405 2.14172,0.52389 2.864433,0.0772 0.327766,-0.20257 0.803744,-0.96983 0.803744,-1.2956 0,-0.35164 0.142963,-0.62637 0.353658,-0.67962 0.108171,-0.0273 0.369894,-0.15975 0.581607,-0.29426 0.297774,-0.18919 0.408774,-0.32415 0.490231,-0.59603 0.122724,-0.40962 0.231153,-0.43375 0.818171,-0.18213 0.313902,0.13455 0.580533,0.16899 1.298186,0.16768 1.092084,-0.002 2.64205,-0.19684 2.909695,-0.36577 0.107132,-0.0676 0.290033,-0.15096 0.40645,-0.1852 0.116419,-0.0342 0.320836,-0.13918 0.454266,-0.2332 0.172743,-0.12172 0.404651,-0.17743 0.805394,-0.19345 1.495973,-0.0598 3.412702,-1.34019 3.787844,-2.53027 0.182345,-0.57847 0.07085,-1.23414 -0.302025,-1.77609 -0.386805,-0.5622 -1.218835,-1.16023 -1.889887,-1.35836 -0.447762,-0.13221 -0.514411,-0.29866 -0.119586,-0.29866 0.386381,0 1.686589,0.65147 2.197158,1.10089 0.22234,0.19571 0.493927,0.55339 0.628917,0.82829 0.206899,0.42132 0.237586,0.58223 0.237586,1.24581 0,0.67751 -0.02816,0.81823 -0.254,1.26917 -0.339329,0.67756 -1.122739,1.44832 -1.870472,1.84026 -0.66434,0.34824 -1.500521,0.59825 -1.76692,0.5283 -0.09493,-0.0249 -0.315909,-0.0883 -0.491058,-0.14089 -0.281673,-0.0845 -0.340342,-0.0753 -0.508,0.0796 -0.341416,0.31552 -1.280692,0.76973 -1.755881,0.84911 -0.622107,0.10391 -2.347521,0.0697 -3.119374,-0.0619 l -0.621707,-0.10597 -0.267293,0.2535 c -0.329158,0.31217 -0.742185,0.52645 -1.014723,0.52645 -0.278179,0 -0.350758,0.11255 -0.518691,0.80434 -0.189967,0.78255 -0.431087,1.13374 -0.985624,1.43556 -0.632392,0.34418 -1.537185,0.3937 -2.523343,0.13807 -1.059167,-0.27455 -1.654138,-0.61247 -2.293447,-1.3026 -0.977093,-1.05476 -1.577509,-1.82366 -1.862505,-2.38515 -0.153142,-0.30171 -0.31068,-0.52865 -0.350085,-0.50429 -0.03941,0.0243 -0.238421,0.29961 -0.442259,0.61168 -0.766755,1.17387 -2.075308,2.22922 -3.958341,3.19242 -1.750215,0.89526 -2.775557,1.11871 -3.6146127,0.78774 z m 11.9878848,-2.16922 c -0.488648,-0.25514 -0.671448,-0.40684 -0.872214,-0.72382 -0.1397,-0.22057 -0.666367,-1.03734 -1.170369,-1.81504 -0.989022,-1.52613 -1.366178,-2.21527 -1.667259,-3.04645 -0.296856,-0.81952 -0.338867,-0.80474 -0.488554,0.17179 -0.04817,0.31425 -0.174509,0.75094 -0.280753,0.97041 -0.466664,0.964 -2.348764,2.52494 -3.6132,2.99665 -0.348394,0.12997 -0.714238,0.31202 -0.812987,0.40454 -0.215592,0.20201 -1.445148,0.73913 -2.059293,0.89958 -0.303075,0.0792 -0.527844,0.0909 -0.7207748,0.0377 -0.3981479,-0.10994 -1.4569649,-1.15607 -1.5921539,-1.57309 -0.05844,-0.18028 -0.215324,-0.54576 -0.348625,-0.81219 -0.133301,-0.26644 -0.242365,-0.59098 -0.242365,-0.72122 0,-0.477 0.40755,-2.03954 0.599781,-2.29955 0.105888,-0.14322 0.173857,-0.27907 0.151042,-0.30188 -0.02281,-0.0228 -0.382058,-0.139 -0.798318,-0.25819 -1.003063,-0.2872 -2.510724,-1.02964 -3.1804962,-1.56623 -1.915765,-1.53482 -3.13264,-4.2517 -2.788765,-6.22637 0.151228,-0.86842 0.564997,-1.68368 1.19821,-2.36087 1.038677,-1.11081 2.1736002,-1.73931 3.7675032,-2.08639 0.80031,-0.17426 0.900456,-0.17773 2.15171,-0.0745 2.0486887,0.1691 2.0451637,0.16984 2.0188677,-0.42675 -0.0072,-0.16298 0.01545,-0.4963 0.0503,-0.74071 0.07096,-0.49769 0.256782,-0.68488 0.909742,-0.91645 0.513039,-0.18195 2.823447,-0.17377 3.449722,0.0122 0.24534,0.0729 0.455981,0.12036 0.468091,0.10555 0.01211,-0.0148 0.07503,-0.1979 0.139815,-0.40686 0.138641,-0.44715 0.48155,-0.67539 1.348336,-0.89745 0.992228,-0.2542 1.622835,-0.05 2.677141,0.86668 0.286557,0.24917 0.538555,0.45303 0.559997,0.45303 0.02144,0 0.104049,-0.17036 0.183572,-0.37859 0.178042,-0.4662 0.490303,-0.73764 1.125932,-0.97876 0.421547,-0.15992 0.598099,-0.17879 1.293942,-0.13832 0.689943,0.0401 0.860353,0.0224 1.185333,-0.1232 0.916103,-0.41044 1.503877,-0.51672 3.038659,-0.54941 0.81058,-0.0173 1.485455,-0.0431 1.499729,-0.0573 0.06487,-0.0649 -0.238773,-0.86745 -0.352197,-0.93093 -0.204592,-0.1145 -0.05541,-0.23011 0.296915,-0.23011 0.775433,0 6.277224,0.89353 7.270732,1.18082 0.155628,0.045 0.390498,0.0603 0.521933,0.034 0.234431,-0.0469 0.240096,-0.0388 0.298087,0.42535 0.05273,0.42204 0.02657,0.55336 -0.242138,1.21564 -1.912483,4.71362 -2.070405,5.16646 -2.548512,7.30781 -0.160708,0.71977 -0.333902,1.72778 -0.384876,2.24001 -0.122783,1.2338 -0.146534,1.32949 -0.321659,1.29576 -0.197565,-0.038 -0.251024,-0.35563 -0.262777,-1.56107 -0.02939,-3.01429 1.09464,-7.28825 2.544358,-9.67453 0.181803,-0.29926 0.300567,-0.57194 0.263919,-0.60596 -0.174249,-0.16179 -6.685573,-1.57481 -6.787443,-1.47294 -0.01828,0.0183 0.03865,0.23326 0.126518,0.47771 0.147548,0.41044 0.192156,0.45644 0.583033,0.60114 0.232797,0.0862 0.50705,0.23505 0.609455,0.33083 0.228587,0.2138 0.44881,0.83468 0.44881,1.26534 0,0.38913 -0.274363,1.11362 -0.56782,1.4994 l -0.215789,0.28369 0.180137,0.32051 c 0.211269,0.3759 0.230391,0.81762 0.0537,1.2405 -0.154651,0.37014 -0.111302,0.45342 0.237268,0.45581 0.390684,0.003 0.935278,0.27638 1.150014,0.57795 0.229788,0.32271 0.31776,0.98787 0.184179,1.39262 -0.05489,0.16632 -0.255852,0.44339 -0.446582,0.6157 l -0.346781,0.3133 0.336007,0.2791 c 0.184804,0.15351 0.407244,0.43708 0.494313,0.63017 0.136652,0.30304 0.144685,0.40199 0.05872,0.7234 -0.05477,0.20478 -0.266496,0.59236 -0.470498,0.86129 -0.204001,0.26892 -0.510296,0.7664 -0.680659,1.1055 l -0.309745,0.61655 0.134316,0.39562 c 0.09811,0.28898 0.11893,0.53929 0.07724,0.92862 -0.03139,0.29314 -0.02408,0.53244 0.01627,0.53176 0.04035,-6.9e-4 0.226673,-0.0547 0.414049,-0.11999 0.860306,-0.29988 2.382898,-0.2352 3.116492,0.13239 0.75677,0.3792 1.072489,0.83714 1.072489,1.5556 0,0.41239 -0.04343,0.53847 -0.331774,0.96307 -0.435748,0.64167 -1.179468,1.31361 -1.654906,1.49518 -0.321595,0.12282 -0.421036,0.12883 -0.638741,0.0387 -0.236162,-0.0978 -0.293769,-0.0845 -0.684913,0.15867 -0.755164,0.46944 -1.169668,0.56195 -2.489333,0.55561 -0.751221,-0.004 -1.464405,-0.0594 -1.947333,-0.15228 -1.444078,-0.27779 -1.279177,-0.29699 -1.341291,0.15618 -0.02994,0.21847 -0.131809,0.50586 -0.226364,0.63866 -0.198892,0.27931 -0.964469,0.59995 -1.480344,0.61998 l -0.338667,0.0132 -0.02411,0.81504 c -0.02934,0.99199 -0.06644,1.03723 -0.99667,1.21523 -0.897499,0.17174 -0.871664,0.17492 -1.578343,-0.19406 z m 1.770295,-0.15254 c 0.229972,-0.14361 0.383203,-0.67309 0.306293,-1.05837 -0.03147,-0.15765 -0.145849,-0.51294 -0.254176,-0.78952 -0.108328,-0.27659 -0.19696,-0.6195 -0.19696,-0.76201 0,-0.15585 -0.186751,-0.59658 -0.468545,-1.10578 -0.715633,-1.29314 -1.37126,-2.75166 -1.236914,-2.75166 0.08216,0 0.641148,0.75619 0.964002,1.3041 0.127715,0.21674 0.286055,0.41473 0.351866,0.43999 0.360805,0.13845 1.009316,-0.66835 1.451663,-1.80598 0.183782,-0.47265 0.337859,-0.68306 0.431568,-0.58935 0.08174,0.0817 -0.214433,1.46454 -0.417379,1.94872 -0.153011,0.36506 -0.228327,0.43547 -0.708404,0.6623 -0.295455,0.13959 -0.53719,0.27072 -0.53719,0.2914 0,0.0207 0.165048,0.38939 0.366773,0.81937 0.361561,0.77067 0.372855,0.78389 0.794531,0.92995 0.547901,0.18978 0.764812,0.18628 1.099419,-0.0177 0.488327,-0.29775 0.569543,-0.57057 0.605935,-2.03544 0.01793,-0.72177 -0.01002,-1.76952 -0.06212,-2.32831 -0.0521,-0.55881 -0.135469,-1.64466 -0.185266,-2.41301 -0.100744,-1.55439 -0.328955,-3.04045 -0.565595,-3.683 l -0.155906,-0.42333 -0.589052,-0.053 c -0.323978,-0.0291 -0.860843,-0.0577 -1.193033,-0.0635 -0.599952,-0.0104 -0.605977,-0.008 -0.903178,0.32066 -0.398885,0.44152 -0.437213,0.52598 -0.614306,1.35365 l -0.152163,0.71115 0.211514,0.17785 c 0.116332,0.0978 0.446924,0.35879 0.734647,0.57992 0.498448,0.38311 0.705822,0.71457 0.374968,0.59934 -0.173167,-0.0603 -1.584299,-1.08915 -2.630152,-1.91762 -0.815947,-0.64635 -0.928235,-0.66509 -1.701627,-0.28392 -0.52736,0.25991 -0.717661,0.70418 -0.713517,1.6658 0.0036,0.84196 0.15788,1.48277 0.896749,3.72532 0.634359,1.92535 1.857593,4.4466 2.33347,4.80957 0.159374,0.12156 0.550552,0.6097 0.869285,1.08477 l 0.579514,0.86375 0.363056,-0.0446 c 0.19968,-0.0245 0.447284,-0.0972 0.550231,-0.16148 z M 11.273641,287.1413 c 2.344989,-1.06053 4.445956,-2.64116 5.077438,-3.81992 0.331815,-0.61939 0.461324,-1.92972 0.312547,-3.16225 l -0.107309,-0.889 -0.685011,-0.68224 c -1.442524,-1.43668 -3.171502,-2.22182 -5.225838,-2.37307 -0.485004,-0.0357 -0.7886328,-0.0187 -0.9625068,0.054 -0.2092169,0.0874 -0.6578829,0.11035 -1.6268549,0.0832 -0.147098,-0.004 -0.279129,-0.28763 -0.196336,-0.42159 0.0385,-0.0623 0.407313,-0.17948 0.819592,-0.26041 1.3649897,-0.26797 3.1168007,-0.69272 3.3487227,-0.81193 0.28524,-0.14663 0.602092,-0.55662 0.832213,-1.07685 0.220681,-0.49888 0.172297,-0.89885 -0.200842,-1.66027 -0.22587,-0.46091 -0.33392,-0.58212 -0.699105,-0.78425 -0.23757,-0.13149 -0.79002,-0.33458 -1.227667,-0.45131 -0.437647,-0.11674 -1.0024888,-0.26832 -1.2552017,-0.33686 -0.805435,-0.21844 -1.691358,-0.24901 -2.561341,-0.0884 -0.997503,0.18418 -1.164751,0.24664 -1.8898472,0.70576 -0.784172,0.49653 -0.944148,0.65172 -1.240993,1.20387 -0.137694,0.25611 -0.38117,0.65041 -0.541057,0.87621 -0.159887,0.22581 -0.348209,0.6042 -0.418493,0.84087 -0.544423,1.83327 0.811835,4.69084 2.8698762,6.04668 1.892631,1.24686 3.9601369,1.74577 5.7330527,1.38344 0.979897,-0.20026 1.102396,0.0758 0.185804,0.41876 -0.256327,0.0959 -0.846015,0.21895 -1.310419,0.27344 -0.7981417,0.0936 -0.8541667,0.11324 -1.0233047,0.35799 -0.09841,0.14241 -0.321697,0.41706 -0.496184,0.61034 -0.358712,0.39735 -0.667948,0.95622 -0.667948,1.20718 0,0.46113 0.44834,1.549 0.898924,2.18118 0.259861,0.36459 0.504872,0.69715 0.5444689,0.73902 0.05926,0.0627 0.4454168,0.1655 0.7902808,0.21047 0.04107,0.005 0.456572,-0.16298 0.923339,-0.37408 z M 30.4716,284.21457 c 0.524806,-0.11255 1.446839,-0.51971 1.602996,-0.70787 0.06213,-0.0749 0.109773,-0.24847 0.105868,-0.3858 -0.0077,-0.27211 -0.460883,-1.18602 -0.683948,-1.3794 -0.07639,-0.0662 -0.72944,-0.21661 -1.451221,-0.33419 -2.046171,-0.33333 -3.121271,-0.91636 -1.449864,-0.78627 0.401609,0.0313 0.792856,0.0748 0.869442,0.0967 0.264412,0.0756 0.383051,-0.17902 0.436544,-0.93705 0.09769,-1.38424 -0.204988,-1.67484 -1.866955,-1.79244 -0.563356,-0.0399 -0.783167,-0.0867 -0.783167,-0.16694 0,-0.20433 0.342392,-0.29879 1.254858,-0.34619 0.727718,-0.0378 0.969018,-0.0197 1.236631,0.0928 0.208454,0.0876 0.362299,0.10997 0.412395,0.0599 0.180777,-0.18078 0.497745,-1.09894 0.533252,-1.54467 0.03583,-0.44982 0.02294,-0.49041 -0.221266,-0.69589 -0.534789,-0.44999 -2.708359,-0.9549 -3.75077,-0.87129 -0.705432,0.0566 -1.121958,0.27173 -1.103187,0.5698 0.04184,0.66444 0.319618,3.02469 0.492461,4.1844 0.178425,1.19716 0.196276,1.54318 0.153519,2.97598 l -0.04838,1.62133 0.256424,0.1326 c 0.141033,0.0729 0.498967,0.16731 0.795411,0.20972 0.776137,0.11106 2.70011,0.11394 3.208959,0.005 z m 3.044909,-1.08394 c 0.606613,-0.60661 1.01612,-1.26339 1.01612,-1.62969 0,-0.26458 -0.05938,-0.36369 -0.394788,-0.65893 -0.522163,-0.45962 -1.109665,-0.63396 -2.148938,-0.63766 -0.871598,-0.003 -1.197623,0.11309 -1.309918,0.4669 -0.07323,0.23072 -0.06132,0.23951 0.522256,0.38554 1.222878,0.30599 1.459463,0.59914 1.533655,1.90032 0.04133,0.72492 0.04899,0.74831 0.215709,0.65908 0.09507,-0.0509 0.349727,-0.26938 0.565904,-0.48556 z m -16.509881,-5.1305 c 0,-0.21617 -0.11556,-0.28251 -0.214173,-0.12295 -0.07043,0.11396 0.01322,0.33461 0.12685,0.33461 0.04803,0 0.08732,-0.0953 0.08732,-0.21166 z m -0.61929,-0.81909 c 0.255543,-0.24007 0.252162,-0.57776 -0.01283,-1.28179 -0.289246,-0.76845 -0.897353,-2.02057 -1.316642,-2.71101 -0.193238,-0.31821 -0.330578,-0.59932 -0.3052,-0.6247 0.02538,-0.0254 0.357387,0.1302 0.737797,0.34572 0.635366,0.35998 0.738582,0.39187 1.268249,0.39187 0.317125,0 0.598162,0.0349 0.624528,0.0776 0.02636,0.0427 0.01284,0.16988 -0.03006,0.28271 -0.06269,0.16488 -0.02253,0.30337 0.204602,0.7056 0.15543,0.27526 0.396829,0.60951 0.536442,0.7428 0.248578,0.23731 0.259516,0.2395 0.527466,0.10583 0.150493,-0.0751 0.454508,-0.1365 0.675587,-0.1365 0.369638,0 0.416022,0.0238 0.576803,0.29633 0.09616,0.16298 0.216506,0.29633 0.267432,0.29633 0.05092,0 0.300282,0.19643 0.554129,0.43651 0.253845,0.24008 0.482202,0.41584 0.50746,0.39058 0.07296,-0.073 0.477223,-1.93895 0.430247,-1.98592 -0.0233,-0.0233 -0.21006,0.13265 -0.415025,0.34657 -0.322651,0.33673 -0.418674,0.38893 -0.715478,0.38893 -0.195255,0 -0.386412,-0.0525 -0.444106,-0.12205 -0.0842,-0.10145 -0.042,-0.13802 0.250001,-0.21664 0.292959,-0.0789 0.37708,-0.15219 0.506567,-0.44141 0.0854,-0.19075 0.137749,-0.39247 0.116333,-0.44828 -0.02142,-0.0558 -0.287952,-0.30709 -0.5923,-0.55838 -0.513911,-0.42433 -1.674481,-1.67272 -2.8648,-3.08157 -1.283764,-1.51946 -1.860503,-2.018 -2.552048,-2.20602 -0.57435,-0.15616 -2.565903,-0.2375 -2.881079,-0.11767 -0.403501,0.15341 -0.551873,0.88274 -0.360816,1.77361 0.08352,0.38945 0.135555,0.4596 0.529166,0.7134 0.240094,0.1548 0.604905,0.37189 0.81069,0.4824 0.340067,0.18264 0.392288,0.25494 0.573168,0.79361 0.313464,0.93351 0.329214,1.341 0.0782,2.02286 -0.275561,0.74852 -0.600967,1.2144 -0.972315,1.39203 -0.162242,0.0776 -0.308625,0.18331 -0.325297,0.23489 -0.01667,0.0516 0.247721,0.19248 0.587539,0.31312 0.918895,0.32621 1.81278,0.7559 2.478555,1.19144 0.325966,0.21324 0.62831,0.38852 0.671875,0.38952 0.04357,10e-4 0.167391,-0.081 0.275168,-0.18228 z m -0.947043,-5.63083 c -0.668089,-0.14968 -0.967121,-0.30519 -1.16667,-0.60673 -0.52387,-0.79162 -0.796291,-1.53702 -0.561735,-1.53702 0.05056,0 0.410794,0.27953 0.800521,0.62117 0.389726,0.34165 0.937614,0.74324 1.217529,0.89244 0.566301,0.30183 0.622785,0.35882 0.548238,0.55308 -0.05086,0.13255 -0.433264,0.16772 -0.837883,0.0771 z m 10.040601,2.69646 c -0.11033,-0.20616 -0.337481,-0.38988 -0.402116,-0.32525 -0.08157,0.0816 0.214909,0.48037 0.357112,0.48037 0.09788,0 0.108479,-0.0365 0.045,-0.15512 z m -2.843935,-0.37291 c 0.04657,-0.002 0.451799,0.025 0.900516,0.0599 l 0.81585,0.0635 0.102407,-0.31029 c 0.07683,-0.23281 0.08028,-0.48358 0.01381,-1.00418 -0.04873,-0.38164 -0.111121,-1.01676 -0.138655,-1.41138 -0.07778,-1.11478 -0.436601,-2.5742 -0.803526,-3.26815 -0.588185,-1.11243 -0.55269,-1.08053 -1.139974,-1.02446 -0.748819,0.0715 -1.159344,0.23927 -1.380264,0.56407 -0.104775,0.15404 -0.1905,0.33015 -0.1905,0.39136 0,0.0612 0.201264,0.33684 0.447254,0.61252 0.642689,0.72028 0.899212,1.118 1.12848,1.74962 0.217833,0.60013 0.254663,0.8882 0.113556,0.8882 -0.140889,0 -0.461156,-0.38458 -1.091729,-1.31095 -0.837185,-1.2299 -2.272056,-2.56105 -3.044362,-2.82429 -0.549011,-0.18712 -1.745316,-0.05 -1.845682,0.21153 -0.0246,0.0641 0.05521,0.19517 0.177352,0.29125 0.297921,0.23435 1.401002,1.59034 2.677555,3.29147 0.575623,0.76707 1.407592,1.78974 1.84882,2.2726 0.760747,0.83253 0.815737,0.87491 1.063328,0.8196 0.143602,-0.0321 0.299194,-0.06 0.345761,-0.0619 z m 3.786206,-0.0628 c 0.666671,-0.2949 1.793434,-0.30598 3.717164,-0.0366 l 0.391369,0.0548 0.230666,-0.49686 c 0.344956,-0.74303 0.370147,-1.07394 0.100759,-1.3236 -0.304038,-0.28177 -0.765712,-0.4011 -1.54732,-0.39992 -0.742588,10e-4 -1.491036,0.1675 -1.731204,0.38485 -0.186608,0.16887 -0.442452,0.10011 -0.402346,-0.10814 0.06119,-0.31774 1.316651,-0.78415 2.118439,-0.78701 0.545399,-0.002 0.610084,-0.0732 0.54733,-0.60306 -0.09823,-0.82937 -0.578675,-1.2085 -1.534496,-1.2109 -0.705622,-0.002 -1.312902,0.18651 -1.920574,0.59544 -0.235772,0.15867 -0.462948,0.28848 -0.504835,0.28848 -0.180711,0 -0.05257,-0.34184 0.21681,-0.57835 0.860627,-0.75564 2.107113,-1.12394 3.110212,-0.91898 0.271521,0.0555 0.347366,0.0328 0.574151,-0.17187 0.207135,-0.18691 0.271907,-0.32736 0.312441,-0.67744 0.09552,-0.82494 -0.137099,-1.06312 -1.368771,-1.40154 -1.164879,-0.32006 -4.019882,-0.2871 -4.483301,0.0518 -0.229229,0.16762 -0.200659,1.00093 0.05997,1.74909 0.121664,0.34925 0.265548,0.9017 0.319743,1.22767 0.0542,0.32596 0.171583,0.84031 0.260862,1.143 0.08928,0.30268 0.194023,0.89619 0.232765,1.3189 0.05708,0.6228 0.129701,0.89178 0.382883,1.41817 0.171843,0.35727 0.363318,0.64959 0.425498,0.64959 0.06218,0 0.283485,-0.0754 0.491787,-0.16753 z m 5.06256,4.80012 c -0.610947,-0.24751 -0.6828,-0.48392 -0.147082,-0.48392 0.861348,0 1.68539,0.11097 1.732327,0.23328 0.06193,0.16139 -0.10719,0.25885 -0.363995,0.20976 -0.113321,-0.0217 -0.300016,0.0222 -0.41488,0.0974 -0.259461,0.17001 -0.244512,0.17105 -0.80637,-0.0566 z"
       id="path4555-1"
       inkscape:connector-curvature="0" />
  </g>
</svg>
